<svg width="400" height="400" viewBox="0 0 400 400" xmlns="http://www.w3.org/2000/svg">
  <circle cx="200" cy="200" r="180" fill="#F2E8CF" stroke="#386641" stroke-width="8"/>
  <circle cx="200" cy="200" r="160" fill="none" stroke="#BC4749" stroke-width="2" stroke-dasharray="10,5"/>
  
  <path d="M200 120 C140 120, 110 200, 140 280 C170 340, 250 340, 280 280 C310 220, 280 120, 200 120" fill="#A7C957" opacity="0.3"/>
  
  <path d="M190 130 C130 130, 100 210, 130 290 C160 350, 240 350, 270 290 C300 230, 270 130, 190 130" fill="#F4A261" stroke="#386641" stroke-width="6"/>
  
  <path d="M160 160 C140 180, 130 220, 150 270" fill="none" stroke="#E76F51" stroke-width="12" stroke-linecap="round" opacity="0.6"/>
  
  <path d="M190 130 C190 130, 210 80, 260 70 C260 70, 240 110, 190 130" fill="#6A994E" stroke="#386641" stroke-width="4"/>
  
  <path d="M190 130 L185 110" fill="none" stroke="#386641" stroke-width="6" stroke-linecap="round"/>

  <path id="textPath" d="M100,200 A100,100 0 0,1 300,200" fill="none" />
  <text fill="#386641" font-family="Arial, sans-serif" font-size="24" font-weight="bold" letter-spacing="2">
    <textPath href="#textPath" startOffset="50%" text-anchor="middle">MANGOS</textPath>
  </text>
  
  <polygon points="200,345 205,355 215,355 207,362 210,372 200,365 190,372 193,362 185,355 195,355" fill="#BC4749" />
</svg>